# xmcd
#
# Track frame offsets:
#	150
#	10685
#	20803
#	32428
#	45431
#	57634
#	65565
#	76411
#	84753
#	95887
#	105460
#	116708
#
# Disc length: 1706 seconds
#
# Revision: 0
# Processed by: cddbd v1.5.2PL0 Copyright (c) Steve Scherf et al.
# Submitted via: EZCDAudioConverter 1.3.4.1
#
DISCID=9206a80c
DTITLE=THE POETS - WOODEN SPOON
DYEAR=1900
DGENRE=
TTITLE0=NOW WE'RE THRU'
TTITLE1=THERE ARE SOME
TTITLE2=THAT'S THE WAY IT'S GOT TO BE
TTITLE3=I'LL CRY WITH THE MOON
TTITLE4=I AM SO BLUE
TTITLE5=I LOVE HER STILL
TTITLE6=CALL AGAIN
TTITLE7=SOME THINGS I CAN'T FORGET
TTITLE8=BABY DON'T YOU DO IT
TTITLE9=I'LL COME HOME
TTITLE10=WOODEN SPOON
TTITLE11=IN YOUR TOWER
EXTD=
EXTT0=
EXTT1=
EXTT2=
EXTT3=
EXTT4=
EXTT5=
EXTT6=
EXTT7=
EXTT8=
EXTT9=
EXTT10=
EXTT11=
PLAYORDER=
